<svg width="56" height="56" viewBox="0 0 56 56" fill="none" xmlns="http://www.w3.org/2000/svg">
<path d="M18.6667 9.33337V33.096C17.919 32.8212 17.1299 32.676 16.3333 32.6667C14.9489 32.6667 13.5955 33.0773 12.4443 33.8464C11.2932 34.6156 10.396 35.7088 9.86617 36.9879C9.33636 38.267 9.19774 39.6745 9.46783 41.0323C9.73793 42.3902 10.4046 43.6375 11.3836 44.6165C12.3626 45.5954 13.6098 46.2621 14.9677 46.5322C16.3256 46.8023 17.733 46.6637 19.0121 46.1339C20.2912 45.6041 21.3844 44.7068 22.1536 43.5557C22.9228 42.4046 23.3333 41.0512 23.3333 39.6667V16.3334H39.6667V26.096C38.919 25.8212 38.1299 25.676 37.3333 25.6667C35.9489 25.6667 34.5955 26.0773 33.4443 26.8464C32.2932 27.6156 31.396 28.7088 30.8662 29.9879C30.3364 31.267 30.1977 32.6745 30.4678 34.0323C30.7379 35.3902 31.4046 36.6375 32.3836 37.6165C33.3626 38.5954 34.6098 39.2621 35.9677 39.5322C37.3256 39.8023 38.733 39.6637 40.0121 39.1339C41.2912 38.6041 42.3845 37.7068 43.1536 36.5557C43.9228 35.4046 44.3333 34.0512 44.3333 32.6667V9.33337H18.6667Z" fill="currentColor"/>
</svg>
