<svg width="72" height="72" viewBox="0 0 72 72" fill="none" xmlns="http://www.w3.org/2000/svg">
<path d="M15 17.484H23.1M23.1 17.484H28.5M23.1 17.484V15M33 17.484H28.5M28.5 17.484C27.552 20.877 25.56 24.087 23.292 26.907L26.763 30.516M17.508 33C19.5831 31.115 21.5164 29.0795 23.292 26.91C22.137 25.551 20.517 23.358 20.052 22.365M40.5 57L42.999 51M42.999 51L48 39L53.001 51M42.999 51H53.001M55.5 57L53.001 51" stroke="white" stroke-width="4" stroke-linecap="round" stroke-linejoin="round"/>
<path d="M42 30V24C42 15.516 42 11.271 39.363 8.637C36.729 6 32.484 6 24 6C15.516 6 11.271 6 8.637 8.637C6 11.271 6 15.516 6 24C6 32.484 6 36.729 8.637 39.363C11.271 42 15.516 42 24 42H30" stroke="white" stroke-width="4" stroke-linecap="round"/>
<path d="M30 48C30 39.516 30 35.271 32.637 32.637C35.271 30 39.516 30 48 30C56.484 30 60.729 30 63.363 32.637C66 35.271 66 39.516 66 48C66 56.484 66 60.729 63.363 63.363C60.729 66 56.484 66 48 66C39.516 66 35.271 66 32.637 63.363C30 60.729 30 56.484 30 48Z" stroke="white" stroke-width="4"/>
<path d="M12 49.5C12 53.712 12 55.821 13.011 57.333C13.4489 57.9884 14.0116 58.5511 14.667 58.989C16.179 60 18.288 60 22.5 60M60 22.5C60 18.288 60 16.179 58.989 14.667C58.5511 14.0116 57.9884 13.4489 57.333 13.011C55.821 12 53.712 12 49.5 12" stroke="white" stroke-width="4" stroke-linecap="round" stroke-linejoin="round"/>
</svg>
